# xmcd
#
# Track frame offsets:
#	150
#	17581
#	39970
#	63135
#	100448
#	144848
#	172258
#	203693
#	239658
#	284842
#	309296
#
# Disc length: 4759 seconds
#
# Revision: 0
# Processed by: cddbd v1.5.2PL0 Copyright (c) Steve Scherf et al.
# Submitted via: EasyCDDAExtractor 9.0.0.1
#
DISCID=9812950b
DTITLE=Black Sabbath - Starwood Amphitheater Antioch TN 31-08-05 Source 2
DYEAR=2005
DGENRE=Hard Rock
TTITLE0=Intro
TTITLE1=NIB
TTITLE2=After Forever
TTITLE3=War Pigs
TTITLE4=Dirty Women
TTITLE5=Fairies Wear Boots
TTITLE6=Electric Funeral
TTITLE7=Iron Man
TTITLE8=Black Sabbath
TTITLE9=Paranoid
TTITLE10=Children Of The Grave
EXTD=
EXTT0=
EXTT1=
EXTT2=
EXTT3=
EXTT4=
EXTT5=
EXTT6=
EXTT7=
EXTT8=
EXTT9=
EXTT10=
PLAYORDER=
